<?xml version="1.0" standalone="no"?>
<!DOCTYPE svg PUBLIC "-//W3C//DTD SVG 1.1//EN" "http://www.w3.org/Graphics/SVG/1.1/DTD/svg11.dtd" >
<svg xmlns="http://www.w3.org/2000/svg">
<metadata>
This is a custom SVG webfont generated by Font Squirrel.
Copyright   : 2005 AlbertJan Pool published by FSI Fonts und Software GmbH
Designer    : AlbertJan Pool
Foundry     : FSI Fonts und Software GmbH
Foundry URL : httpwwwfontfontcom
</metadata>
<defs>
<font id="DINProBold" horiz-adv-x="1112" >
<font-face units-per-em="2048" ascent="1565" descent="-483" />
<missing-glyph horiz-adv-x="475" />
<glyph unicode=" "  horiz-adv-x="475" />
<glyph unicode="&#x09;" horiz-adv-x="475" />
<glyph unicode="&#xa0;" horiz-adv-x="475" />
<glyph unicode="!" horiz-adv-x="710" d="M229 1458h330l-67 -1001h-197zM242 0v303h305v-303h-305z" />
<glyph unicode="&#x22;" horiz-adv-x="950" d="M139 1026v432h250v-432h-250zM561 1026v432h248v-432h-248z" />
<glyph unicode="#" horiz-adv-x="1415" d="M123 389v250h182l33 221h-143v248h182l57 362h281l-58 -362h238l57 362h279l-55 -362h141v-248h-182l-33 -221h141v-250h-182l-62 -389h-280l63 389h-237l-62 -389h-280l61 389h-141zM584 639h237l33 221h-236z" />
<glyph unicode="$" horiz-adv-x="1267" d="M39 180l184 185q117 -117 326 -123v370l-66 9q-184 25 -282 122q-104 104 -105 285q0 178 114 298t312 140v185h207v-183q246 -14 404 -168l-181 -178q-90 86 -252 99v-357l78 -12q186 -29 279 -115q113 -106 112 -307q0 -182 -120.5 -296t-319.5 -138v-229h-207v221 q-303 10 -483 192zM371 1038q0 -63 43 -104q47 -45 135 -57v342q-86 -12 -132 -61.5t-46 -119.5zM700 246q190 23 191 176q0 80 -45 123q-39 37 -146 53v-352z" />
<glyph unicode="%" horiz-adv-x="1736" d="M106 987v203q0 133 85 206.5t212 73.5t212 -73.5t85 -206.5v-203q0 -133 -85 -206.5t-212 -73.5t-212 73.5t-85 206.5zM299 995q0 -117 104.5 -116.5t104.5 116.5v187q0 117 -104.5 116.5t-104.5 -116.5v-187zM420 0l690 1458h209l-690 -1458h-209zM1036 268v203 q0 133 85 207t212 74t212 -74t85 -207v-203q0 -133 -85 -206.5t-212 -73.5t-212 73.5t-85 206.5zM1229 276q0 -117 104.5 -116.5t104.5 116.5v187q0 117 -104.5 117t-104.5 -117v-187z" />
<glyph unicode="&#x26;" horiz-adv-x="1476" d="M123 430q0 217 262 391q-145 166 -145 309q0 152 104.5 246t284.5 94q170 0 271 -96t101 -248q0 -145 -149 -254q-68 -51 -104 -75l245 -291q68 90 74 256h252q-16 -297 -156 -453l262 -309h-338l-106 127q-53 -43 -84 -63.5t-114 -48t-179 -27.5q-238 0 -359.5 116.5 t-121.5 325.5zM381 434q0 -90 63.5 -147.5t157.5 -57.5q119 0 217 86l-291 342q-76 -53 -111.5 -102t-35.5 -121zM508 1124q0 -25 15.5 -55.5t30.5 -50t50 -57.5l62 40q84 59 84 123q0 51 -33 85t-88 34q-57 0 -89 -33t-32 -86z" />
<glyph unicode="'" horiz-adv-x="530" d="M139 1026v432h252v-432h-252z" />
<glyph unicode="(" horiz-adv-x="688" d="M164 283v893q0 172 53 264q45 76 180 211l178 -178q-82 -82 -114 -138q-31 -55 -31 -172v-868q0 -117 31 -172q33 -55 114 -137l-178 -179q-135 135 -180 211q-53 93 -53 265z" />
<glyph unicode=")" horiz-adv-x="688" d="M111 -12q86 86 114 135q31 55 31 172v868q0 117 -31 172q-29 49 -114 135l180 181q135 -135 180 -211q53 -92 53 -264v-893q0 -172 -53 -265q-45 -76 -180 -211z" />
<glyph unicode="*" horiz-adv-x="1011" d="M113 942l225 119l-225 119l92 163l217 -137l-10 256h188l-8 -256l215 137l94 -163l-227 -119l227 -119l-94 -162l-215 135l8 -256h-188l10 256l-217 -135z" />
<glyph unicode="+" d="M102 442v250h330v328h250v-328h328v-250h-328v-327h-250v327h-330z" />
<glyph unicode="," horiz-adv-x="571" d="M139 291h293v-404l-293 -225v629z" />
<glyph unicode="-" horiz-adv-x="872" d="M121 461v248h631v-248h-631z" />
<glyph unicode="." horiz-adv-x="583" d="M139 0v303h305v-303h-305z" />
<glyph unicode="/" horiz-adv-x="825" d="M0 -152l584 1762h250l-584 -1762h-250z" />
<glyph unicode="0" d="M113 422v614q0 201 129 317.5t315 116.5t314 -116.5t128 -317.5v-614q0 -201 -128 -317.5t-314 -116.5t-315 116.5t-129 317.5zM379 424q0 -90 49 -143.5t129 -53.5t128 53.5t48 143.5v608q0 92 -48 145.5t-128 53.5t-129 -54.5t-49 -144.5v-608z" />
<glyph unicode="1" d="M211 913v287l297 258h266v-1458h-266v1171z" />
<glyph unicode="2" d="M121 0v240l545 632q76 90 75 177q0 82 -46 132t-130 50q-76 0 -127 -44t-51 -143h-266q0 195 126 310.5t318 115.5q197 0 320 -114.5t123 -308.5q0 -98 -35 -166t-121 -168l-408 -473h564v-240h-887z" />
<glyph unicode="3" d="M86 418h266q2 -94 58.5 -142.5t140.5 -48.5q88 0 142.5 53.5t54.5 149.5q0 92 -54.5 146.5t-150.5 54.5h-39v231h39q92 0 138 50.5t46 131.5q0 88 -51 137.5t-127 49.5t-126 -47t-54 -129h-267q4 190 131 302.5t316 112.5q195 0 319.5 -116.5t124.5 -300.5 q0 -209 -168 -299q188 -100 189 -332q0 -209 -132 -321.5t-331 -112.5q-195 0 -329 107.5t-136 322.5z" />
<glyph unicode="4" d="M63 207v252l500 999h291l-500 -999h305v272h256v-272h134v-252h-134v-207h-256v207h-596z" />
<glyph unicode="5" d="M117 408h266q23 -180 178 -181q80 0 127 47q57 57 57 218q0 262 -178 262q-137 0 -176 -119h-244v823h832v-239h-590v-314q78 74 219 74q174 0 273 -98q131 -131 131 -389q0 -133 -27 -221.5t-102 -164.5q-119 -119 -322 -118q-209 0 -325 116q-105 105 -119 304z" />
<glyph unicode="6" d="M98 438q0 139 123 389l307 631h291l-303 -602q45 18 109 18q156 0 269.5 -118.5t113.5 -313.5q0 -211 -128 -332.5t-327 -121.5t-327 119.5t-128 330.5zM365 440.5q0 -98.5 52 -156t136 -57.5t136 57.5t52 155.5q0 96 -52 154.5t-136 58.5t-136 -57t-52 -155.5z" />
<glyph unicode="7" d="M102 989v469h928v-239l-473 -1219h-289l473 1219h-385v-230h-254z" />
<glyph unicode="8" d="M90 424q0 207 182 328q-164 115 -163.5 303t130.5 301.5t318 113.5t317.5 -113.5t129.5 -302t-164 -302.5q184 -123 184 -328t-132 -320.5t-335 -115.5t-335 115.5t-132 320.5zM356 428q0 -84 58.5 -142.5t142.5 -58.5t142.5 58.5t58.5 142.5t-58.5 143.5t-142.5 59.5 t-142.5 -59.5t-58.5 -143.5zM375 1047q0 -80 52 -132.5t130 -52.5t129 52.5t51 132.5q0 78 -51 131t-129 53t-130 -53t-52 -131z" />
<glyph unicode="9" d="M104 1016q0 211 128 332.5t327 121.5t327 -119.5t128 -330.5q0 -143 -121 -389l-309 -631h-289l303 602q-45 -18 -109 -18q-156 0 -270.5 118.5t-114.5 313.5zM371 1018q0 -96 52 -154.5t136 -58.5t136.5 57.5t52.5 155.5t-52.5 155.5t-136.5 57.5t-136 -57.5t-52 -155.5 z" />
<glyph unicode=":" horiz-adv-x="632" d="M190 0v303h304v-303h-304zM190 555v303h304v-303h-304z" />
<glyph unicode=";" horiz-adv-x="632" d="M190 555v303h304v-303h-304zM197 291h290v-404l-290 -225v629z" />
<glyph unicode="&#x3c;" d="M141 469v231l832 383v-280l-494 -219l494 -217v-281z" />
<glyph unicode="=" d="M102 238v249h908v-249h-908zM102 682v250h908v-250h-908z" />
<glyph unicode="&#x3e;" d="M141 86v281l494 217l-494 219v280l832 -383v-231z" />
<glyph unicode="?" horiz-adv-x="1071" d="M135 1061q0 186 123 297.5t307 111.5q182 0 307 -110.5t125 -298.5q0 -123 -100 -256l-152 -201q-37 -47 -36 -104v-43h-267v61q0 111 78 213l152 195q59 78 59 137q0 74 -45 121t-121 47q-78 0 -121 -48t-43 -122h-266zM434 0v272h283v-272h-283z" />
<glyph unicode="@" horiz-adv-x="1552" d="M117 342v612q0 260 127 387q125 125 385 125h295q260 0 385 -124.5t125 -387.5v-960l-248 6v94q-98 -106 -246 -106q-162 0 -258 102q-59 63 -77.5 147.5t-18.5 235.5q0 150 18.5 232.5t75.5 146.5q94 104 258 104q150 0 242 -100v92q0 137 -72 209t-205 72h-254 q-133 0 -204.5 -72t-71.5 -209v-592q0 -76 19.5 -116.5t70.5 -85.5l-184 -185q-90 82 -126 160t-36 213zM842 473q0 -131 36.5 -197.5t131 -66.5t132.5 67.5t38 196.5t-38 195.5t-132.5 66.5t-131 -65.5t-36.5 -196.5z" />
<glyph unicode="A" horiz-adv-x="1306" d="M10 0l531 1458h223l532 -1458h-297l-86 258h-518l-88 -258h-297zM475 498h363l-179 530z" />
<glyph unicode="B" horiz-adv-x="1347" d="M170 0v1458h586q211 0 330.5 -110.5t119.5 -298.5q0 -111 -56 -190t-124 -111q201 -94 201 -328q0 -199 -123 -309.5t-324 -110.5h-610zM455 254h297q92 0 141 51t49 129t-49 128t-141 50h-297v-358zM455 868h278q90 0 139.5 46.5t49.5 122t-49.5 121.5t-139.5 46h-278 v-336z" />
<glyph unicode="C" horiz-adv-x="1269" d="M121 729q0 240 24 363q25 125 119 219q160 160 393 159q213 0 356.5 -120.5t180.5 -339.5h-289q-51 207 -246 207q-119 0 -182 -76q-45 -47 -58 -124t-13 -288t13 -287.5t58 -124.5q63 -76 182 -75q195 0 246 207h289q-37 -219 -180.5 -340t-356.5 -121q-233 0 -393 159 q-94 94 -119 220q-24 122 -24 362z" />
<glyph unicode="D" horiz-adv-x="1349" d="M170 0v1458h526q246 0 385 -139q27 -27 48.5 -54.5t37 -61.5t26.5 -58.5t17.5 -66.5t10.5 -61.5t6 -70.5t2 -66v-74v-71v-70v-75q0 -16 -2 -68.5t-6 -73t-10.5 -63.5t-17.5 -68.5t-26.5 -60.5t-37 -62.5t-48.5 -54.5q-139 -139 -385 -139h-526zM455 254h215q139 0 213 90 q39 47 50 130t11 261q0 174 -11 253t-50 126q-74 90 -213 90h-215v-950z" />
<glyph unicode="E" horiz-adv-x="1239" d="M170 0v1458h960v-254h-675v-342h575v-254h-575v-354h675v-254h-960z" />
<glyph unicode="F" horiz-adv-x="1208" d="M170 0v1458h960v-254h-675v-358h575v-254h-575v-592h-285z" />
<glyph unicode="G" horiz-adv-x="1304" d="M121 729q0 240 24 363q25 125 119 219q160 160 393 159q236 0 377.5 -131t171.5 -335h-286q-53 213 -263 213q-115 0 -182 -78q-43 -53 -56 -128t-13 -282q0 -211 13 -285.5t56 -126.5q63 -76 182 -75q127 0 203 82q66 76 66 194v55h-269v238h551v-213 q0 -160 -31.5 -262.5t-107.5 -181.5q-164 -166 -412 -166q-233 0 -393 159q-94 94 -119 220q-24 122 -24 362z" />
<glyph unicode="H" horiz-adv-x="1402" d="M170 0v1458h285v-596h493v596h285v-1458h-285v610h-493v-610h-285z" />
<glyph unicode="I" horiz-adv-x="624" d="M170 0v1458h285v-1458h-285z" />
<glyph unicode="J" horiz-adv-x="1046" d="M6 137l189 187q82 -82 186 -82q106 0 167.5 63.5t61.5 186.5v966h285v-979q0 -231 -149.5 -361t-364.5 -130q-119 0 -207 34.5t-168 114.5z" />
<glyph unicode="K" horiz-adv-x="1361" d="M170 0v1458h285v-635l514 635h346l-484 -579l519 -879h-332l-375 664l-188 -226v-438h-285z" />
<glyph unicode="L" horiz-adv-x="1177" d="M170 0v1458h285v-1204h661v-254h-946z" />
<glyph unicode="M" horiz-adv-x="1660" d="M170 0v1458h281l380 -788l379 788h281v-1458h-285v850l-278 -553h-193l-280 553v-850h-285z" />
<glyph unicode="N" horiz-adv-x="1456" d="M170 0v1458h254l577 -893v893h285v-1458h-254l-577 895v-895h-285z" />
<glyph unicode="O" horiz-adv-x="1318" d="M121 729q0 129 2 182.5t14.5 141.5t43 146t83.5 112q160 160 395 159q233 0 394 -159q53 -53 84.5 -112.5t44 -144.5t14.5 -142.5t2 -182.5t-2 -182.5t-14.5 -142.5t-44 -144t-84.5 -113q-160 -160 -394 -159q-236 0 -395 159q-53 53 -83.5 111.5t-43 147t-14.5 141.5 t-2 182zM406 729q0 -207 13 -284.5t56 -125.5q68 -78 184 -77q115 0 183 77q43 47 57 126t14 284t-14 284t-57 126q-68 78 -183 78q-117 0 -184 -78q-43 -47 -56 -125t-13 -285z" />
<glyph unicode="P" horiz-adv-x="1286" d="M170 0v1458h565q219 0 350.5 -131t131.5 -323.5t-131.5 -323.5t-350.5 -131h-280v-549h-285zM455 805h266q96 0 153.5 54t57.5 144.5t-57.5 145.5t-153.5 55h-266v-399z" />
<glyph unicode="Q" horiz-adv-x="1316" d="M121 729q0 129 2 182.5t14.5 141.5t43 146t83.5 112q160 160 395 159q233 0 394 -159q53 -53 84.5 -112.5t44 -144.5t14.5 -142.5t2 -182.5q0 -143 -3 -208.5t-23.5 -155t-63.5 -152.5l125 -125l-150 -149l-129 129q-123 -80 -295 -80q-236 0 -395 159 q-53 53 -83.5 111.5t-43 147t-14.5 141.5t-2 182zM406 729q0 -207 13 -284.5t56 -125.5q68 -78 184 -77q55 0 95 26l-127 125l151 150l109 -109q27 76 26 295q0 205 -14 284t-57 126q-68 78 -183 78q-117 0 -184 -78q-43 -47 -56 -125t-13 -285z" />
<glyph unicode="R" horiz-adv-x="1339" d="M170 0v1458h571q217 0 345 -129t128 -317q0 -145 -75.5 -243.5t-190.5 -139.5l326 -629h-330l-285 582h-204v-582h-285zM455 819h268q92 0 149.5 53.5t57.5 139.5t-57.5 139t-149.5 53h-268v-385z" />
<glyph unicode="S" horiz-adv-x="1210" d="M39 180l184 185q123 -123 352 -123q258 0 259 180q0 80 -46 123q-41 37 -129 51l-176 25q-186 27 -282 120q-104 104 -105 287q0 199 137.5 320.5t370.5 121.5q295 0 471 -170l-180 -178q-104 100 -299 101q-109 0 -167 -52.5t-58 -132.5q0 -63 43 -104q49 -45 135 -57 l172 -25q184 -27 278 -113q113 -106 113 -309q0 -207 -152.5 -324.5t-388.5 -117.5q-174 0 -301 44t-231 148z" />
<glyph unicode="T" horiz-adv-x="1169" d="M61 1204v254h1047v-254h-381v-1204h-285v1204h-381z" />
<glyph unicode="U" horiz-adv-x="1368" d="M147 500v958h285v-948q0 -125 67.5 -196.5t184.5 -71.5t185.5 71.5t68.5 196.5v948h283v-958q0 -227 -154 -369.5t-383 -142.5t-383 142.5t-154 369.5z" />
<glyph unicode="V" horiz-adv-x="1189" d="M6 1458h295l293 -950l293 950h297l-484 -1458h-213z" />
<glyph unicode="W" horiz-adv-x="1816" d="M12 1458h297l226 -919l266 919h213l266 -919l227 919h297l-391 -1458h-237l-269 885l-268 -885h-238z" />
<glyph unicode="X" horiz-adv-x="1234" d="M10 0l453 748l-424 710h323l254 -471l256 471h322l-424 -710l455 -748h-326l-283 508l-280 -508h-326z" />
<glyph unicode="Y" horiz-adv-x="1171" d="M6 1458h309l273 -588l268 588h309l-438 -860v-598h-283v598z" />
<glyph unicode="Z" horiz-adv-x="1122" d="M82 0v229l623 975h-596v254h931v-225l-624 -979h624v-254h-958z" />
<glyph unicode="[" horiz-adv-x="774" d="M164 -152v1762h526v-240h-260v-1282h260v-240h-526z" />
<glyph unicode="\" horiz-adv-x="825" d="M0 1583h250l575 -1735h-250z" />
<glyph unicode="]" horiz-adv-x="774" d="M86 86h260v1286h-260v238h526v-1762h-526v238z" />
<glyph unicode="^" horiz-adv-x="1232" d="M129 797l365 676h245l365 -676h-279l-209 385l-208 -385h-279z" />
<glyph unicode="_" horiz-adv-x="1232" d="M0 -186h1233v-179h-1233v179z" />
<glyph unicode="`" horiz-adv-x="1024" d="M213 1585h281l131 -348h-179z" />
<glyph unicode="a" horiz-adv-x="1093" d="M74 324q0 135 93 222t271 87h252v53q0 88 -47 128t-151 40q-76 0 -119 -19.5t-86 -68.5l-170 166q76 84 162 115.5t223 31.5q455 0 454 -377v-702h-260v92q-55 -55 -113.5 -78.5t-148.5 -23.5q-178 0 -272 94q-88 93 -88 240zM330 330q0 -123 153 -123q115 0 168 51 q39 37 39 135v58h-211q-72 0 -110.5 -32t-38.5 -89z" />
<glyph unicode="b" horiz-adv-x="1146" d="M150 0v1458h266v-485q96 106 258 106q164 0 260 -96q49 -49 74.5 -133t29.5 -146.5t4 -169t-4 -169t-29.5 -147.5t-74.5 -134q-96 -96 -260 -96q-166 0 -266 112v-100h-258zM416 535q0 -74 6 -123.5t23.5 -94.5t55.5 -67.5t95 -22.5t95 22.5t55.5 67.5t23.5 94.5t6 123.5 q0 152 -34.5 228.5t-145.5 76.5t-145.5 -76.5t-34.5 -228.5z" />
<glyph unicode="c" horiz-adv-x="983" d="M96 534.5q0 124.5 30 222t77 157t111.5 98.5t128 53t130.5 14q215 0 353 -143l-181 -180q-78 84 -172 84t-151 -70q-59 -74 -60 -235q0 -164 60 -238q57 -70 151.5 -70t171.5 84l181 -178q-139 -145 -353 -145q-68 0 -131 15t-127.5 53t-111.5 98.5t-77 158t-30 222z" />
<glyph unicode="d" horiz-adv-x="1148" d="M104 534.5q0 106.5 4.5 169t30 146.5t74.5 133q96 96 260 96t260 -106v485h266v-1458h-260v100q-100 -113 -264 -112q-166 0 -262 96q-49 49 -74.5 134t-30 147.5t-4.5 169zM371 535q0 -74 6 -123.5t23.5 -94.5t55.5 -67.5t95 -22.5q111 0 146.5 78t35.5 229.5 t-35.5 228.5t-146.5 77t-145.5 -76.5t-34.5 -228.5z" />
<glyph unicode="e" horiz-adv-x="1122" d="M96 535q0 256 127 400t338 144q217 0 341 -142t124 -368v-118h-668q0 -106 62.5 -172t171.5 -66q84 0 136 23.5t106 76.5l161 -157q-88 -88 -178 -128t-227 -40q-102 0 -185 25.5t-155 85t-113 170t-41 266.5zM358 633h406q-2 63 -25 115q-49 111 -178 110.5t-178 -110.5 q-23 -52 -25 -115z" />
<glyph unicode="f" horiz-adv-x="700" d="M72 834v202h110v133q0 125 80 215.5t232 90.5h151v-226h-104q-92 0 -92 -96v-117h196v-202h-196v-834h-267v834h-110z" />
<glyph unicode="g" horiz-adv-x="1136" d="M104 563q0 164 19.5 258t89.5 164q94 94 256 94q158 0 260 -112v100h258v-1028q0 -195 -128 -318.5t-341 -123.5q-127 0 -217 30.5t-170 108.5l166 168q84 -82 209 -82q111 0 163 64.5t52 156.5v109q-96 -106 -254 -107q-160 0 -254 94q-70 70 -89.5 165t-19.5 259z M371 563.5q0 -61.5 5 -104.5t21.5 -86t53 -65.5t94 -22.5t94.5 22.5t53.5 65.5t22.5 86t6 104q0 129 -35 203t-141 74q-57 0 -93 -21.5t-53.5 -64.5t-22.5 -86t-5 -104.5z" />
<glyph unicode="h" horiz-adv-x="1165" d="M150 0v1458h266v-489q109 111 256 110q170 0 263 -107.5t93 -281.5v-690h-266v651q0 98 -51.5 143.5t-123 45.5t-121.5 -46t-50 -143v-651h-266z" />
<glyph unicode="i" horiz-adv-x="563" d="M145 1249v217h273v-217h-273zM150 0v1067h266v-1067h-266z" />
<glyph unicode="j" horiz-adv-x="563" d="M-47 -174h102q94 0 95 96v1145h266v-1161q0 -125 -79 -215t-233 -90h-151v225zM145 1249v217h273v-217h-273z" />
<glyph unicode="k" horiz-adv-x="1144" d="M150 0v1458h266v-827l354 436h322l-381 -430l409 -637h-329l-263 444l-112 -127v-317h-266z" />
<glyph unicode="l" horiz-adv-x="665" d="M139 305v1153h267v-1136q0 -96 94 -97h102v-225h-151q-154 0 -233 90t-79 215z" />
<glyph unicode="m" horiz-adv-x="1794" d="M150 0v1067h260v-98q106 111 266 110q184 0 282 -135q129 135 320 135q168 0 262 -94q117 -117 117 -303v-682h-266v645q0 100 -52.5 147.5t-124 47.5t-125 -46t-53.5 -143v-651h-266v645q0 100 -52 147.5t-124 47.5q-74 0 -126 -47.5t-52 -147.5v-645h-266z" />
<glyph unicode="n" horiz-adv-x="1173" d="M150 0v1067h260v-98q104 111 266 110q158 0 252 -94q109 -109 108 -303v-682h-266v645q0 100 -52 147.5t-124 47.5q-74 0 -126 -47.5t-52 -147.5v-645h-266z" />
<glyph unicode="o" d="M104 535q0 152 26 247t95 166q123 131 330 131q209 0 332 -131q70 -72 95.5 -167t25.5 -246q0 -154 -26 -249.5t-95 -166.5q-123 -131 -332 -131q-207 0 -330 131q-70 72 -95.5 167t-25.5 249zM371 535q0 -199 61 -261q47 -47 123 -47q78 0 125 47q61 61 61 261 q0 197 -61 258q-47 47 -125 47q-76 0 -123 -47q-61 -61 -61 -258z" />
<glyph unicode="p" horiz-adv-x="1146" d="M150 -391v1458h258v-100q100 113 266 112q164 0 260 -96q49 -49 74.5 -133t29.5 -146.5t4 -169t-4 -169t-29.5 -147.5t-74.5 -134q-96 -96 -260 -96q-162 0 -258 106v-485h-266zM416 535q0 -74 6 -123.5t23.5 -94.5t55.5 -67.5t95 -22.5t95 22.5t55.5 67.5t23.5 94.5 t6 123.5q0 152 -34.5 228.5t-145.5 76.5t-145.5 -76.5t-34.5 -228.5z" />
<glyph unicode="q" horiz-adv-x="1148" d="M104 534.5q0 106.5 4.5 169t30 146.5t74.5 133q96 96 262 96q164 0 264 -112v100h260v-1458h-266v485q-96 -106 -260 -106t-260 96q-49 49 -74.5 134t-30 147.5t-4.5 169zM371 535q0 -74 6 -123.5t23.5 -94.5t55.5 -67.5t95 -22.5q111 0 146.5 78t35.5 229.5t-35.5 228.5 t-146.5 77t-145.5 -76.5t-34.5 -228.5z" />
<glyph unicode="r" horiz-adv-x="931" d="M150 0v1067h260v-102q41 49 113.5 81.5t154.5 32.5q152 0 252 -100l-201 -203q-63 63 -141 64q-68 0 -120 -51.5t-52 -145.5v-643h-266z" />
<glyph unicode="s" horiz-adv-x="1026" d="M45 141l174 174q100 -100 285 -100q78 0 133 27.5t55 83.5q0 88 -112 98l-168 16q-311 31 -312 299q0 160 120 250t292 90q274 0 408 -125l-164 -166q-80 72 -248 72q-76 0 -114 -29.5t-38 -72.5q0 -82 111 -92l168 -17q156 -14 236.5 -95t80.5 -218q0 -170 -127 -259 t-325 -89q-147 0 -255 30.5t-200 122.5z" />
<glyph unicode="t" horiz-adv-x="720" d="M61 834v202h113v316h266v-316h189v-202h-189v-512q0 -96 92 -97h97v-225h-146q-152 0 -230.5 90t-78.5 215v529h-113z" />
<glyph unicode="u" horiz-adv-x="1173" d="M137 385v682h266v-645q0 -100 52.5 -147.5t124.5 -47.5q74 0 126 47.5t52 147.5v645h266v-1067h-260v98q-104 -111 -266 -110q-158 0 -252 94q-109 108 -109 303z" />
<glyph unicode="v" horiz-adv-x="1009" d="M8 1067h281l217 -659l215 659h280l-391 -1067h-209z" />
<glyph unicode="w" horiz-adv-x="1554" d="M8 1067h283l172 -659l217 659h194l220 -659l172 659h280l-325 -1067h-220l-223 670l-223 -670h-219z" />
<glyph unicode="x" horiz-adv-x="1079" d="M25 0l368 545l-354 522h319l181 -305l182 305h319l-354 -522l369 -545h-320l-196 319l-195 -319h-319z" />
<glyph unicode="y" horiz-adv-x="1011" d="M8 1067h281l221 -659l213 659h281l-457 -1239q-35 -92 -80 -137q-82 -82 -229 -82h-105v239h62q57 0 84.5 19.5t48.5 77.5l45 131z" />
<glyph unicode="z" horiz-adv-x="978" d="M76 0v203l473 624h-447v240h787v-203l-479 -624h479v-240h-813z" />
<glyph unicode="{" horiz-adv-x="935" d="M88 610v238h94q68 0 107 39q35 35 35 123v297q0 141 86 227q76 76 229 76h209v-240h-109q-88 0 -116 -29q-33 -35 -33 -131v-276q0 -68 -26.5 -114t-51.5 -61.5t-63 -29.5q39 -14 63.5 -29.5t51 -61.5t26.5 -114v-276q0 -96 33 -131q29 -29 116 -29h109v-240h-209 q-154 0 -229 76q-86 86 -86 228v297q0 88 -35 122q-39 39 -107 39h-94z" />
<glyph unicode="|" horiz-adv-x="716" d="M225 -152v1762h267v-1762h-267z" />
<glyph unicode="}" horiz-adv-x="935" d="M88 88h109q88 0 116 29q33 35 33 131v276q0 68 26.5 114t51.5 61.5t63 29.5q-39 14 -63.5 29.5t-51 61.5t-26.5 114v276q0 96 -33 131q-29 29 -116 29h-109v240h209q154 0 229 -76q86 -86 86 -227v-297q0 -88 35 -123q39 -39 107 -39h94v-238h-94q-68 0 -107 -39 q-35 -35 -35 -122v-297q0 -141 -86 -228q-76 -76 -229 -76h-209v240z" />
<glyph unicode="~" horiz-adv-x="1241" d="M76 600q98 98 170.5 137t165.5 39q109 0 239 -69q94 -49 166 -50q92 0 178 86l170 -168q-96 -96 -170.5 -136t-167.5 -40q-109 0 -239 70q-94 49 -168 49q-90 0 -176 -86z" />
<glyph unicode="&#xa2;" horiz-adv-x="1021" d="M96 749.5q0 227.5 104.5 363.5t274.5 171v174h207v-174q160 -29 279 -154l-177 -172q-63 66 -131 84v-585q68 18 131 84l177 -172q-119 -125 -279 -154v-215h-207v215q-170 35 -274.5 171t-104.5 363.5zM362 749.5q0 -155.5 64 -235.5q31 -41 78 -53v577q-43 -12 -78 -53 q-64 -80 -64 -235.5z" />
<glyph unicode="&#xa3;" horiz-adv-x="1185" d="M82 608v205h125v166q0 231 149.5 361t364.5 130q119 0 206 -34.5t167 -114.5l-187 -186q-82 82 -186 82q-106 0 -169 -63.5t-63 -186.5v-154h232v-205h-232v-354h605v-254h-887v608h-125z" />
<glyph unicode="&#xa5;" horiz-adv-x="1169" d="M6 1458h309l271 -590l270 590h307l-278 -553h151v-205h-256l-53 -102v-104h309v-205h-309v-289h-283v289h-311v205h311v104l-53 102h-258v205h154z" />
<glyph unicode="&#xa8;" horiz-adv-x="1024" d="M172 1241v256h227v-256h-227zM625 1241v256h227v-256h-227z" />
<glyph unicode="&#xa9;" horiz-adv-x="1728" d="M123 729q0 307 217 524t524 217t524.5 -217t217.5 -524t-217.5 -524t-524.5 -217t-524 217t-217 524zM299 729q0 -246 163 -410.5t402.5 -164.5t401 164.5t161.5 410.5t-161.5 411t-401 165t-402.5 -165t-163 -411zM512 729.5q0 190.5 103.5 297t263.5 106.5 q145 0 270 -109l-115 -115q-78 66 -155 66q-94 0 -143.5 -65.5t-49.5 -180.5t49 -180.5t144 -65.5q78 0 155 66l115 -115q-119 -106 -270 -106q-160 0 -263.5 105.5t-103.5 296z" />
<glyph unicode="&#xab;" horiz-adv-x="1286" d="M70 563l510 508v-317l-193 -191l193 -190v-318zM639 563l512 508v-317l-197 -191l197 -190v-318z" />
<glyph unicode="&#xad;" horiz-adv-x="872" d="M121 461v248h631v-248h-631z" />
<glyph unicode="&#xae;" horiz-adv-x="1728" d="M123 729q0 307 217 524t524 217t524.5 -217t217.5 -524t-217.5 -524t-524.5 -217t-524 217t-217 524zM299 729q0 -246 163 -410.5t402.5 -164.5t402.5 164.5t163 410.5t-163 411t-402.5 165t-402.5 -165t-163 -411zM594 336v788h321q117 0 190 -72.5t73 -174.5 q0 -76 -41 -130.5t-105 -78.5l166 -332h-201l-143 305h-84v-305h-176zM770 774h123q47 0 77.5 30t30.5 73t-30.5 72.5t-77.5 29.5h-123v-205z" />
<glyph unicode="&#xaf;" horiz-adv-x="1024" d="M186 1276v180h650v-180h-650z" />
<glyph unicode="&#xb4;" horiz-adv-x="1024" d="M399 1237l131 348h281l-233 -348h-179z" />
<glyph unicode="&#xb8;" horiz-adv-x="1024" d="M328 -422l141 299h197l-91 -299h-247z" />
<glyph unicode="&#xbb;" horiz-adv-x="1286" d="M137 55v318l195 190l-195 191v317l510 -508zM707 55v318l192 190l-192 191v317l512 -508z" />
<glyph unicode="&#xc6;" horiz-adv-x="2004" d="M6 0l762 1458h1128v-254h-675v-344h577v-254h-577v-352h675v-254h-958v319h-461l-166 -319h-305zM600 559h338v645z" />
<glyph unicode="&#xe6;" horiz-adv-x="1716" d="M74 324q0 135 93 222t271 87h252v53q0 88 -47 128t-151 40q-76 0 -119 -19.5t-86 -68.5l-170 166q76 84 162 115.5t223 31.5q244 0 350 -116q115 117 303 116q217 0 341 -142t124 -368v-118h-668q0 -106 62.5 -172t171.5 -66q84 0 136 23.5t105 76.5l162 -157 q-88 -88 -178 -128t-227 -40q-246 0 -375 149q-82 -90 -167 -119.5t-208 -29.5q-176 0 -272 96q-88 93 -88 240zM330 330q0 -123 153 -123q115 0 168 51q39 37 39 135v58h-211q-72 0 -110.5 -32t-38.5 -89zM952 633h406q-2 63 -25 115q-49 111 -178 110.5t-178 -110.5 q-23 -52 -25 -115z" />
<glyph unicode="&#x100;" horiz-adv-x="1306" d="M10 0l531 1458h223l532 -1458h-297l-86 258h-518l-88 -258h-297zM326 1624v180h649v-180h-649zM475 498h363l-179 530z" />
<glyph unicode="&#x101;" horiz-adv-x="1093" d="M74 324q0 135 93 222t271 87h252v53q0 88 -47 128t-151 40q-76 0 -119 -19.5t-86 -68.5l-170 166q76 84 162 115.5t223 31.5q455 0 454 -377v-702h-260v92q-55 -55 -113.5 -78.5t-148.5 -23.5q-178 0 -272 94q-88 93 -88 240zM219 1276v180h649v-180h-649zM330 330 q0 -123 153 -123q115 0 168 51q39 37 39 135v58h-211q-72 0 -110.5 -32t-38.5 -89z" />
<glyph unicode="&#x10c;" horiz-adv-x="1269" d="M121 729q0 240 24 363q25 125 119 219q160 160 393 159q213 0 356.5 -120.5t180.5 -339.5h-289q-51 207 -246 207q-119 0 -182 -76q-45 -47 -58 -124t-13 -288t13 -287.5t58 -124.5q63 -76 182 -75q195 0 246 207h289q-37 -219 -180.5 -340t-356.5 -121q-233 0 -393 159 q-94 94 -119 220q-24 122 -24 362zM283 1946h206l170 -185l170 185h207l-270 -347h-213z" />
<glyph unicode="&#x10d;" horiz-adv-x="983" d="M96 534.5q0 124.5 30 222t77 157t111.5 98.5t128 53t130.5 14q215 0 353 -143l-181 -180q-78 84 -172 84t-151 -70q-59 -74 -60 -235q0 -164 60 -238q57 -70 151.5 -70t171.5 84l181 -178q-139 -145 -353 -145q-68 0 -131 15t-127.5 53t-111.5 98.5t-77 158t-30 222z M197 1583h206l170 -184l170 184h207l-270 -346h-213z" />
<glyph unicode="&#x112;" horiz-adv-x="1239" d="M170 0v1458h960v-254h-675v-342h575v-254h-575v-354h675v-254h-960zM303 1624v180h649v-180h-649z" />
<glyph unicode="&#x113;" horiz-adv-x="1122" d="M96 535q0 256 127 400t338 144q217 0 341 -142t124 -368v-118h-668q0 -106 62.5 -172t171.5 -66q84 0 136 23.5t106 76.5l161 -157q-88 -88 -178 -128t-227 -40q-102 0 -185 25.5t-155 85t-113 170t-41 266.5zM233 1276v180h650v-180h-650zM358 633h406q-2 63 -25 115 q-49 111 -178 110.5t-178 -110.5q-23 -52 -25 -115z" />
<glyph unicode="&#x122;" horiz-adv-x="1304" d="M121 729q0 240 24 363q25 125 119 219q160 160 393 159q236 0 377.5 -131t171.5 -335h-286q-53 213 -263 213q-115 0 -182 -78q-43 -53 -56 -128t-13 -282q0 -211 13 -285.5t56 -126.5q63 -76 182 -75q127 0 203 82q66 76 66 194v55h-269v238h551v-213 q0 -160 -31.5 -262.5t-107.5 -181.5q-164 -166 -412 -166q-233 0 -393 159q-94 94 -119 220q-24 122 -24 362zM479 -422l142 299h196l-90 -299h-248z" />
<glyph unicode="&#x123;" horiz-adv-x="1136" d="M104 563q0 164 19.5 258t89.5 164q94 94 256 94q158 0 260 -112v100h258v-1028q0 -195 -128 -318.5t-341 -123.5q-127 0 -217 30.5t-170 108.5l166 168q84 -82 209 -82q111 0 163 64.5t52 156.5v109q-96 -106 -254 -107q-160 0 -254 94q-70 70 -89.5 165t-19.5 259z M371 563.5q0 -61.5 5 -104.5t21.5 -86t53 -65.5t94 -22.5t94.5 22.5t53.5 65.5t22.5 86t6 104q0 129 -35 203t-141 74q-57 0 -93 -21.5t-53.5 -64.5t-22.5 -86t-5 -104.5zM455 1237l131 348h280l-233 -348h-178z" />
<glyph unicode="&#x12a;" horiz-adv-x="624" d="M-10 1624v180h649v-180h-649zM170 0v1458h285v-1458h-285z" />
<glyph unicode="&#x12b;" horiz-adv-x="563" d="M-43 1276v180h649v-180h-649zM150 0v1067h266v-1067h-266z" />
<glyph unicode="&#x136;" horiz-adv-x="1361" d="M170 0v1458h285v-635l514 635h346l-484 -579l519 -879h-332l-375 664l-188 -226v-438h-285zM545 -422l141 299h197l-90 -299h-248z" />
<glyph unicode="&#x137;" horiz-adv-x="1144" d="M150 0v1458h266v-827l354 436h322l-381 -430l409 -637h-329l-263 444l-112 -127v-317h-266zM387 -422l141 299h197l-90 -299h-248z" />
<glyph unicode="&#x13b;" horiz-adv-x="1177" d="M170 0v1458h285v-1204h661v-254h-946zM403 -422l142 299h196l-90 -299h-248z" />
<glyph unicode="&#x13c;" horiz-adv-x="665" d="M139 305v1153h267v-1136q0 -96 94 -97h102v-225h-151q-154 0 -233 90t-79 215zM150 -422l141 299h196l-90 -299h-247z" />
<glyph unicode="&#x145;" horiz-adv-x="1456" d="M170 0v1458h254l577 -893v893h285v-1458h-254l-577 895v-895h-285zM543 -422l141 299h197l-90 -299h-248z" />
<glyph unicode="&#x146;" horiz-adv-x="1173" d="M150 0v1067h260v-98q104 111 266 110q158 0 252 -94q109 -109 108 -303v-682h-266v645q0 100 -52 147.5t-124 47.5q-74 0 -126 -47.5t-52 -147.5v-645h-266zM401 -422l142 299h196l-90 -299h-248z" />
<glyph unicode="&#x160;" horiz-adv-x="1210" d="M39 180l184 185q123 -123 352 -123q258 0 259 180q0 80 -46 123q-41 37 -129 51l-176 25q-186 27 -282 120q-104 104 -105 287q0 199 137.5 320.5t370.5 121.5q295 0 471 -170l-180 -178q-104 100 -299 101q-109 0 -167 -52.5t-58 -132.5q0 -63 43 -104q49 -45 135 -57 l172 -25q184 -27 278 -113q113 -106 113 -309q0 -207 -152.5 -324.5t-388.5 -117.5q-174 0 -301 44t-231 148zM225 1946h207l170 -185l170 185h207l-270 -347h-213z" />
<glyph unicode="&#x161;" horiz-adv-x="1026" d="M45 141l174 174q100 -100 285 -100q78 0 133 27.5t55 83.5q0 88 -112 98l-168 16q-311 31 -312 299q0 160 120 250t292 90q274 0 408 -125l-164 -166q-80 72 -248 72q-76 0 -114 -29.5t-38 -72.5q0 -82 111 -92l168 -17q156 -14 236.5 -95t80.5 -218q0 -170 -127 -259 t-325 -89q-147 0 -255 30.5t-200 122.5zM135 1583h207l170 -184l170 184h207l-271 -346h-212z" />
<glyph unicode="&#x16a;" horiz-adv-x="1368" d="M147 500v958h285v-948q0 -125 67.5 -196.5t184.5 -71.5t185.5 71.5t68.5 196.5v948h283v-958q0 -227 -154 -369.5t-383 -142.5t-383 142.5t-154 369.5zM358 1624v180h650v-180h-650z" />
<glyph unicode="&#x16b;" horiz-adv-x="1173" d="M137 385v682h266v-645q0 -100 52.5 -147.5t124.5 -47.5q74 0 126 47.5t52 147.5v645h266v-1067h-260v98q-104 -111 -266 -110q-158 0 -252 94q-109 108 -109 303zM260 1276v180h649v-180h-649z" />
<glyph unicode="&#x17d;" horiz-adv-x="1122" d="M82 0v229l623 975h-596v254h931v-225l-624 -979h624v-254h-958zM190 1946h207l170 -185l170 185h207l-270 -347h-213z" />
<glyph unicode="&#x17e;" horiz-adv-x="978" d="M76 0v203l473 624h-447v240h787v-203l-479 -624h479v-240h-813zM119 1583h207l170 -184l170 184h206l-270 -346h-213z" />
<glyph unicode="&#x2c6;" horiz-adv-x="1024" d="M135 1237l271 346h212l271 -346h-207l-170 186l-170 -186h-207z" />
<glyph unicode="&#x2d8;" horiz-adv-x="1024" d="M176 1532h178q14 -123 157.5 -123t158.5 123h178q-8 -158 -100.5 -233.5t-235.5 -75.5t-236.5 75.5t-99.5 233.5z" />
<glyph unicode="&#x2da;" horiz-adv-x="1024" d="M244 1464.5q0 110.5 78.5 189.5t189.5 79t189.5 -78t78.5 -191q0 -111 -78.5 -189.5t-189.5 -78.5t-189.5 79t-78.5 189.5zM393 1464q0 -49 35 -85t84 -36t84 36t35 85t-35 84t-84 35t-84 -35t-35 -84z" />
<glyph unicode="&#x2dc;" horiz-adv-x="1024" d="M176 1397q119 119 230 119q82 0 159 -46q61 -39 113 -38q59 0 119 59l118 -117q-119 -119 -231 -119q-78 0 -158 45q-63 37 -114 37q-61 0 -119 -57z" />
<glyph unicode="&#x2dd;" horiz-adv-x="1024" d="M121 1237l131 348h280l-231 -348h-180zM535 1237l129 348h282l-235 -348h-176z" />
<glyph unicode="&#x398;" horiz-adv-x="1318" d="M121 729q0 129 2 182.5t14.5 141.5t43 146t83.5 112q160 160 395.5 159.5t395.5 -159.5q53 -53 83.5 -111.5t43 -146.5t14.5 -141.5t2 -182.5t-2 -182t-14.5 -141.5t-43 -146.5t-83.5 -112q-160 -160 -395.5 -159.5t-395.5 159.5q-53 53 -83.5 111.5t-43 147t-14.5 141.5 t-2 182zM406 614q2 -133 17 -191t52 -101q72 -80 184 -80q111 0 183 80q37 43 52 101t17 191h-505zM406 858h505q-4 127 -19 183.5t-50 97.5q-68 78 -183 78q-117 0 -184 -78q-35 -41 -50 -97.5t-19 -183.5z" />
<glyph unicode="&#x3a8;" horiz-adv-x="1525" d="M102 743v715h283v-715q0 -98 61 -163q72 -74 175 -78v956h284v-956q102 4 174 78q61 66 62 163v715h282v-715q0 -203 -133 -335q-158 -158 -385 -160v-248h-284v248q-227 2 -385 160q-134 132 -134 335z" />
<glyph unicode="&#x3b8;" horiz-adv-x="1179" d="M123 729q0 115 2 168t13.5 148.5t43 164t82.5 125.5q123 135 328 135t328 -135q41 -45 69.5 -108.5t41.5 -107.5t19.5 -137t6.5 -120v-135q0 -125 -1 -169t-12.5 -145.5t-42 -169t-81.5 -122.5q-123 -135 -328 -135t-328 135q-51 57 -82.5 125.5t-43 164t-13.5 149.5 t-2 169zM393 647q0 -287 68 -360q55 -59 131 -60q78 0 131 60q66 74 65 360h-395zM393 877h393q-6 229 -63 294q-53 59 -131 59.5t-131 -59.5q-62 -67 -68 -294z" />
<glyph unicode="&#x3c8;" horiz-adv-x="1433" d="M119 535v532h268v-582q0 -258 197 -258v840h268v-840q195 0 195 258v582h268v-532q0 -150 -25.5 -247.5t-89.5 -166.5q-113 -127 -348 -127v-385h-268v385q-236 0 -348 127q-117 127 -117 414z" />
<glyph unicode="&#x400;" horiz-adv-x="1239" d="M328 1941h281l131 -348h-179zM170 0v1458h960v-254h-675v-342h575v-254h-575v-354h675v-254h-960z" />
<glyph unicode="&#x401;" horiz-adv-x="1239" d="M170 0v1458h960v-254h-675v-342h575v-254h-575v-354h675v-254h-960zM295 1604v256h227v-256h-227zM748 1604v256h227v-256h-227z" />
<glyph unicode="&#x402;" horiz-adv-x="1531" d="M59 1204v254h1047v-254h-444v-286h266q213 0 343 -123t130 -322v-27q0 -201 -131 -323.5t-342 -122.5h-86v244h63q94 0 152.5 56t58.5 146v27q0 90 -58.5 144.5t-152.5 54.5h-243v-672h-283v1204h-320z" />
<glyph unicode="&#x403;" horiz-adv-x="1148" d="M176 0v1458h918v-254h-633v-1204h-285zM489 1599l132 349h280l-233 -349h-179z" />
<glyph unicode="&#x404;" horiz-adv-x="1267" d="M121 729q0 129 2 182.5t14.5 141.5t43 146t83.5 112q160 160 393 159q209 0 353.5 -117.5t181.5 -336.5h-283q-55 207 -250 207q-117 0 -186 -80q-37 -41 -52 -99.5t-20 -187.5h453v-248h-455q4 -131 20.5 -191.5t53.5 -101.5q70 -80 186 -79q100 0 164 56t86 150h283 q-37 -219 -181.5 -336.5t-353.5 -117.5q-233 0 -393 159q-53 53 -83.5 111.5t-43 147t-14.5 141.5t-2 182z" />
<glyph unicode="&#x405;" horiz-adv-x="1210" d="M39 180l184 185q123 -123 352 -123q258 0 259 180q0 80 -46 123q-41 37 -129 51l-176 25q-186 27 -282 120q-104 104 -105 287q0 199 137.5 320.5t370.5 121.5q295 0 471 -170l-180 -178q-104 100 -299 101q-109 0 -167 -52.5t-58 -132.5q0 -63 43 -104q49 -45 135 -57 l172 -25q184 -27 278 -113q113 -106 113 -309q0 -207 -152.5 -324.5t-388.5 -117.5q-174 0 -301 44t-231 148z" />
<glyph unicode="&#x406;" horiz-adv-x="624" d="M170 0v1458h285v-1458h-285z" />
<glyph unicode="&#x407;" horiz-adv-x="624" d="M-29 1604v256h228v-256h-228zM170 0v1458h285v-1458h-285zM424 1604v256h227v-256h-227z" />
<glyph unicode="&#x408;" horiz-adv-x="1046" d="M6 137l189 187q82 -82 186 -82q106 0 167.5 63.5t61.5 186.5v966h285v-979q0 -231 -149.5 -361t-364.5 -130q-119 0 -207 34.5t-168 114.5z" />
<glyph unicode="&#x409;" horiz-adv-x="2064" d="M35 0v254h41q59 0 101 21.5t78 78t53.5 167t17.5 276.5v661h907v-549h289q213 0 343 -127t130 -327.5t-131 -327.5t-342 -127h-574v1204h-348v-424q0 -301 -52 -474t-147.5 -239.5t-253.5 -66.5h-112zM1233 254h266q96 0 153.5 55.5t57.5 145.5t-57.5 144t-153.5 54h-266 v-399z" />
<glyph unicode="&#x40a;" horiz-adv-x="2064" d="M170 0v1458h285v-549h493v549h285v-549h289q213 0 343 -127t130 -327.5t-131 -327.5t-342 -127h-574v655h-493v-655h-285zM1233 254h266q96 0 153.5 55.5t57.5 145.5t-57.5 144t-153.5 54h-266v-399z" />
<glyph unicode="&#x40b;" horiz-adv-x="1531" d="M59 1204v254h1047v-254h-444v-286h266q213 0 343 -123t130 -322v-473h-285v473q0 90 -58.5 144.5t-152.5 54.5h-243v-672h-283v1204h-320z" />
<glyph unicode="&#x40c;" horiz-adv-x="1310" d="M174 0v1458h285v-692l471 692h340l-490 -684l539 -774h-348l-512 762v-762h-285zM586 1599l131 349h280l-233 -349h-178z" />
<glyph unicode="&#x40d;" horiz-adv-x="1445" d="M401 1941h281l131 -348h-179zM170 0v1458h285v-934l567 934h254v-1458h-285v936l-567 -936h-254z" />
<glyph unicode="&#x40e;" horiz-adv-x="1189" d="M8 1458h297l305 -702l277 702h295l-516 -1212q-104 -246 -326 -246h-174v254h115q111 0 151 92l43 100zM279 1829h200q8 -127 131 -127t131 127h201q-6 -154 -100 -223.5t-231.5 -69.5t-231.5 69.5t-100 223.5z" />
<glyph unicode="&#x40f;" horiz-adv-x="1404" d="M170 0v1458h285v-1204h493v1204h285v-1458h-393v-324h-275v324h-395z" />
<glyph unicode="&#x410;" horiz-adv-x="1306" d="M10 0l531 1458h223l532 -1458h-297l-86 258h-518l-88 -258h-297zM475 498h363l-179 530z" />
<glyph unicode="&#x411;" horiz-adv-x="1339" d="M170 0v1458h965v-254h-680v-295h299q217 0 345 -126t128 -328.5t-128 -328.5t-345 -126h-584zM455 254h284q94 0 148.5 54t54.5 147q0 90 -54 145t-149 55h-284v-401z" />
<glyph unicode="&#x412;" horiz-adv-x="1347" d="M170 0v1458h586q207 0 328.5 -108.5t121.5 -292.5q0 -209 -180 -309q70 -37 111 -78q90 -96 90 -252q0 -193 -121 -305.5t-326 -112.5h-610zM455 254h297q88 0 139 49t51 131t-51 130t-139 48h-297v-358zM455 868h278q88 0 138.5 45t50.5 123t-50.5 123t-138.5 45h-278 v-336z" />
<glyph unicode="&#x413;" horiz-adv-x="1148" d="M176 0v1458h918v-254h-633v-1204h-285z" />
<glyph unicode="&#x414;" horiz-adv-x="1443" d="M29 254h137q174 268 174 831v373h879v-1204h167v-578h-274v324h-809v-324h-274v578zM483 254h451v950h-322v-211q0 -479 -129 -739z" />
<glyph unicode="&#x415;" horiz-adv-x="1239" d="M170 0v1458h960v-254h-675v-342h575v-254h-575v-354h675v-254h-960z" />
<glyph unicode="&#x416;" horiz-adv-x="1923" d="M-12 0l526 774l-477 684h336l446 -692v692h285v-692l446 692h336l-477 -684l526 -774h-344l-487 762v-762h-285v762l-487 -762h-344z" />
<glyph unicode="&#x417;" horiz-adv-x="1241" d="M70 442h282q55 -207 250 -206q106 0 170 54t64 142q0 94 -56.5 145.5t-165.5 51.5h-188v233h190q94 0 146.5 48t52.5 137q0 84 -57.5 132t-153.5 48q-100 0 -162.5 -58.5t-85.5 -152.5h-284q37 219 181 336.5t353 117.5q217 0 355.5 -110.5t138.5 -292.5 q0 -211 -191 -313q211 -94 211 -332q0 -197 -145.5 -315.5t-374.5 -118.5q-205 0 -349 117.5t-181 336.5z" />
<glyph unicode="&#x418;" horiz-adv-x="1445" d="M170 0v1458h285v-934l567 934h254v-1458h-285v936l-567 -936h-254z" />
<glyph unicode="&#x419;" horiz-adv-x="1445" d="M170 0v1458h285v-934l567 934h254v-1458h-285v936l-567 -936h-254zM393 1829h201q8 -127 131 -127t131 127h201q-6 -154 -100.5 -223.5t-231.5 -69.5t-231.5 69.5t-100.5 223.5z" />
<glyph unicode="&#x41a;" horiz-adv-x="1310" d="M174 0v1458h285v-692l471 692h340l-490 -684l539 -774h-348l-512 762v-762h-285z" />
<glyph unicode="&#x41b;" horiz-adv-x="1404" d="M35 0v254h41q59 0 101 21.5t78 78t53.5 167t17.5 276.5v661h907v-1458h-285v1204h-348v-424q0 -301 -52 -474t-147.5 -239.5t-253.5 -66.5h-112z" />
<glyph unicode="&#x41c;" horiz-adv-x="1660" d="M170 0v1458h281l380 -788l379 788h281v-1458h-285v850l-278 -553h-193l-280 553v-850h-285z" />
<glyph unicode="&#x41d;" horiz-adv-x="1402" d="M170 0v1458h285v-596h493v596h285v-1458h-285v610h-493v-610h-285z" />
<glyph unicode="&#x41e;" horiz-adv-x="1318" d="M121 668v120q0 219 29.5 328t113.5 195q156 160 395 159q238 0 394 -159q145 -147 145 -480v-155q0 -125 -5 -194.5t-39 -167t-101 -167.5q-154 -160 -393.5 -159.5t-395.5 159.5q-66 68 -99.5 170.5t-38.5 172t-5 178.5zM406 676q0 -96 3 -149.5t19 -115t47 -92.5 q78 -78 184 -77q115 0 183 77q45 51 58 133.5t13 303.5q0 180 -14 258t-57 125q-68 78 -183 78q-117 0 -184 -78q-45 -49 -57 -138.5t-12 -250.5v-74z" />
<glyph unicode="&#x41f;" horiz-adv-x="1402" d="M170 0v1458h1063v-1458h-285v1204h-493v-1204h-285z" />
<glyph unicode="&#x420;" horiz-adv-x="1286" d="M170 0v1458h565q211 0 346.5 -128t135.5 -326q0 -201 -135.5 -328t-346.5 -127h-280v-549h-285zM455 805h266q96 0 153.5 54t57.5 144.5t-57.5 145.5t-153.5 55h-266v-399z" />
<glyph unicode="&#x421;" horiz-adv-x="1269" d="M121 729q0 129 2 182.5t14.5 141.5t43 146t83.5 112q160 160 393 159q211 0 355.5 -118.5t181.5 -341.5h-289q-51 207 -246 207q-117 0 -182 -76q-43 -47 -57 -127t-14 -285t14 -284.5t57 -127.5q66 -76 182 -75q195 0 246 207h289q-37 -223 -182.5 -342t-354.5 -119 q-233 0 -393 159q-53 53 -83.5 111.5t-43 147t-14.5 141.5t-2 182z" />
<glyph unicode="&#x422;" horiz-adv-x="1169" d="M61 1204v254h1047v-254h-381v-1204h-285v1204h-381z" />
<glyph unicode="&#x423;" horiz-adv-x="1189" d="M8 1458h297l305 -702l277 702h295l-516 -1212q-104 -246 -326 -246h-174v254h115q111 0 151 92l43 100z" />
<glyph unicode="&#x424;" horiz-adv-x="1667" d="M92 784q0 561 600 598v146h283v-146q600 -37 600 -598q0 -293 -143.5 -448.5t-456.5 -171.5v-174h-283v174q-311 16 -455.5 172.5t-144.5 447.5zM377 772q0 -178 74.5 -269t244.5 -102v738q-174 -8 -246.5 -95.5t-72.5 -271.5zM973 401q170 10 244.5 101.5t74.5 269.5 q0 184 -72.5 271t-246.5 96v-738z" />
<glyph unicode="&#x425;" horiz-adv-x="1234" d="M10 0l453 748l-424 710h323l254 -471l256 471h322l-424 -710l455 -748h-326l-283 508l-280 -508h-326z" />
<glyph unicode="&#x426;" horiz-adv-x="1458" d="M170 0v1458h285v-1204h493v1204h285v-1204h170v-578h-275v324h-958z" />
<glyph unicode="&#x427;" horiz-adv-x="1329" d="M131 862v596h285v-522q0 -174 182 -174q127 0 276 31v665h283v-1458h-283v547q-240 -39 -370 -39q-154 0 -263.5 92t-109.5 262z" />
<glyph unicode="&#x428;" horiz-adv-x="2023" d="M170 0v1458h285v-1204h415v1204h285v-1204h414v1204h284v-1458h-1683z" />
<glyph unicode="&#x429;" horiz-adv-x="2076" d="M170 0v1458h285v-1204h415v1204h285v-1204h414v1204h284v-1204h168v-578h-274v324h-1577z" />
<glyph unicode="&#x42a;" horiz-adv-x="1488" d="M61 1204v254h596v-549h289q211 0 342 -127t131 -327.5t-132 -327.5t-341 -127h-573v1204h-312zM657 254h267q96 0 153.5 55.5t57.5 145.5t-58.5 145t-152.5 55h-267v-401z" />
<glyph unicode="&#x42b;" horiz-adv-x="1828" d="M170 0v1458h285v-549h288q213 0 343.5 -127t130.5 -327.5t-131.5 -327.5t-342.5 -127h-573zM455 254h266q96 0 153.5 55.5t57.5 145.5t-57.5 145t-153.5 55h-266v-401zM1374 0v1458h285v-1458h-285z" />
<glyph unicode="&#x42c;" horiz-adv-x="1286" d="M170 0v1458h285v-549h288q213 0 343.5 -127t130.5 -327.5t-131.5 -327.5t-342.5 -127h-573zM455 254h266q96 0 153.5 55.5t57.5 145.5t-57.5 145t-153.5 55h-266v-401z" />
<glyph unicode="&#x42d;" horiz-adv-x="1267" d="M76 442h282q23 -94 86.5 -150t163.5 -56q117 0 187 79q37 41 53 101.5t20 191.5h-454v248h452q-4 129 -19.5 187.5t-51.5 99.5q-70 80 -187 80q-195 0 -250 -207h-282q37 219 181 336.5t353 117.5q233 0 394 -159q53 -53 83.5 -111.5t43 -146.5t14.5 -141.5t2 -182.5 t-2 -182t-14.5 -141.5t-43 -146.5t-83.5 -112q-160 -160 -394 -159q-209 0 -353 117.5t-181 336.5z" />
<glyph unicode="&#x42e;" horiz-adv-x="1871" d="M170 0v1458h285v-594h221q6 168 35.5 267.5t107.5 179.5q152 160 393 159q238 0 396 -159q143 -145 143 -453v-149q0 -152 -5 -227.5t-38 -170t-100 -164.5q-154 -160 -394 -159q-242 0 -395 159q-84 86 -112.5 192.5t-32.5 270.5h-219v-610h-285zM958 682 q0 -160 15.5 -237.5t56.5 -122.5q70 -80 182 -80q115 0 185 80q43 47 56 127.5t13 246.5v86q0 276 -69 357q-68 78 -184.5 78t-182.5 -78q-72 -82 -72 -367v-90z" />
<glyph unicode="&#x42f;" horiz-adv-x="1331" d="M66 0l301 606q-117 53 -183.5 156.5t-66.5 241.5q0 207 133 330.5t346 123.5h565v-1458h-284v549h-234l-240 -549h-337zM399 1008q0 -90 58.5 -148.5t152.5 -58.5h267v407h-267q-96 0 -153.5 -55t-57.5 -145z" />
<glyph unicode="&#x430;" horiz-adv-x="1093" d="M74 322q0 143 97 227t267 84h252v53q0 88 -47 128t-156 40q-72 0 -112.5 -18.5t-87.5 -69.5l-170 166q78 78 143 108q90 39 236 39q461 0 460 -377v-702h-260v92q-59 -57 -110 -78q-61 -25 -152 -24q-170 0 -265 87t-95 245zM330 330q0 -123 168 -123q102 0 147 43 t45 143v58h-211q-72 0 -110.5 -32t-38.5 -89z" />
<glyph unicode="&#x431;" horiz-adv-x="1122" d="M121 623q0 254 15.5 390t49 209.5t105.5 129.5q92 72 234.5 94t406.5 24v-229q-31 -2 -105.5 -5t-121 -6t-106.5 -15.5t-103 -34.5q-74 -39 -105 -94.5t-31 -151.5q31 53 106 88t161 35q166 0 262 -86q135 -127 135 -432q0 -158 -30.5 -256.5t-100.5 -171.5 q-117 -123 -315 -123q-264 0 -371 166q-86 135 -86 469zM387 535q0 -190 59 -256q43 -51 127 -51.5t129 53.5q55 68 56 251q0 176 -53 242q-43 57 -131.5 57t-133.5 -55q-53 -69 -53 -241z" />
<glyph unicode="&#x432;" horiz-adv-x="1126" d="M147 0v1067h527q150 0 240 -80t90 -213q0 -147 -136 -225q152 -78 152 -242q0 -141 -88 -224t-240 -83h-545zM412 197h211q61 0 97 33.5t36 91t-35 90t-98 32.5h-211v-247zM412 643h198q129 0 129 115q0 113 -129 112h-198v-227z" />
<glyph unicode="&#x433;" horiz-adv-x="888" d="M156 0v1067h706v-236h-440v-831h-266z" />
<glyph unicode="&#x434;" horiz-adv-x="1187" d="M27 236h108q104 186 105 505v326h766v-831h135v-498h-252v262h-610v-262h-252v498zM414 236h325v595h-243v-139q0 -288 -82 -456z" />
<glyph unicode="&#x435;" horiz-adv-x="1122" d="M96 537q0 250 125 396t340 146q211 0 338 -139t127 -371v-118h-668q12 -238 244 -238q68 0 123 23q49 20 109 77l161 -157q-96 -92 -184 -129q-98 -39 -219 -39q-496 0 -496 549zM358 633h406q-6 109 -58.5 167t-144.5 58t-145.5 -58t-57.5 -167z" />
<glyph unicode="&#x436;" horiz-adv-x="1558" d="M-12 0l374 569l-350 498h305l328 -506v506h268v-506l330 506h305l-350 -498l373 -569h-311l-347 557v-557h-268v557l-344 -557h-313z" />
<glyph unicode="&#x437;" horiz-adv-x="1015" d="M35 139l153 168q106 -94 271 -94q76 0 131 31.5t55 89.5q0 115 -153 115h-162v190h157q66 0 105 31.5t39 85.5q0 109 -180 108q-127 0 -232 -73l-147 163q158 125 432 125q162 0 275.5 -76.5t113.5 -211.5q0 -76 -40 -137.5t-105 -92.5q74 -31 117.5 -96.5t43.5 -149.5 q0 -145 -118.5 -236t-288.5 -91q-299 -1 -467 151z" />
<glyph unicode="&#x438;" horiz-adv-x="1206" d="M147 0v1067h269v-635l375 635h268v-1067h-268v651l-375 -651h-269z" />
<glyph unicode="&#x439;" horiz-adv-x="1206" d="M147 0v1067h269v-635l375 635h268v-1067h-268v651l-375 -651h-269zM270 1479h201q8 -127 131 -127t131 127h201q-4 -154 -99.5 -223.5t-232.5 -69.5t-231.5 69.5t-100.5 223.5z" />
<glyph unicode="&#x43a;" horiz-adv-x="1091" d="M150 0v1067h268v-506l350 506h311l-377 -498l402 -569h-320l-366 557v-557h-268z" />
<glyph unicode="&#x43b;" horiz-adv-x="1169" d="M29 0v236h32q43 0 68 9t54.5 45t43 122t13.5 223v432h780v-1067h-266v831h-256v-256q0 -326 -84 -450.5t-258 -124.5h-127z" />
<glyph unicode="&#x43c;" horiz-adv-x="1386" d="M147 0v1067h265l282 -561l281 561h262v-1067h-266v616l-201 -395h-152l-202 395v-616h-269z" />
<glyph unicode="&#x43d;" horiz-adv-x="1173" d="M147 0v1067h269v-403h342v403h268v-1067h-268v428h-342v-428h-269z" />
<glyph unicode="&#x43e;" d="M104 535q0 158 28 250t93 163q125 131 330 131q207 0 332 -131q66 -70 93.5 -162t27.5 -247q0 -164 -27 -257.5t-94 -162.5q-125 -131 -332 -131q-205 0 -330 131q-68 70 -94.5 163t-26.5 253zM371 518q0 -154 44 -222.5t140 -68.5q51 0 88 19.5t55.5 47.5t28.5 74 t12 80.5t2 86.5q0 63 -5 107t-21.5 94t-56.5 77t-103 27q-53 0 -89 -21.5t-54.5 -50.5t-28.5 -79t-11 -83t-1 -88z" />
<glyph unicode="&#x43f;" horiz-adv-x="1173" d="M147 0v1067h879v-1067h-268v831h-342v-831h-269z" />
<glyph unicode="&#x440;" horiz-adv-x="1146" d="M150 -391v1458h258v-100q63 63 119.5 87.5t142.5 24.5q168 0 264 -96q68 -68 90 -180q18 -100 18 -273q0 -186 -24.5 -286.5t-83.5 -159.5q-96 -96 -264 -96q-147 0 -254 106v-485h-266zM416 518q0 -156 42 -223.5t138 -67.5q100 0 140 70t40 240q0 168 -40 235.5 t-140 67.5q-45 0 -78 -12.5t-51 -42t-29.5 -53t-15.5 -72t-5 -70t-1 -72.5z" />
<glyph unicode="&#x441;" horiz-adv-x="983" d="M96 543q0 252 127 394t352 142q113 0 199 -37q74 -33 152 -106l-181 -180q-82 84 -172 84q-211 0 -211 -305q0 -307 211 -308q51 0 87 17.5t85 66.5l181 -178q-78 -74 -152 -106q-86 -39 -199 -39q-229 0 -354 144.5t-125 410.5z" />
<glyph unicode="&#x442;" horiz-adv-x="933" d="M23 831v236h888v-236h-307v-831h-268v831h-313z" />
<glyph unicode="&#x443;" horiz-adv-x="1011" d="M8 1067h281l221 -659l213 659h281l-457 -1239q-43 -115 -116 -167t-193 -52h-105v239h62q59 0 85.5 19.5t47.5 77.5l45 131z" />
<glyph unicode="&#x444;" horiz-adv-x="1486" d="M92 541q0 506 518 536v381h267v-381q518 -31 518 -536q0 -262 -137.5 -399.5t-380.5 -151.5v-381h-267v381q-244 14 -381 151.5t-137 399.5zM360 539q0 -305 254 -312v613q-254 -2 -254 -301zM872 227q254 6 254 312q0 299 -254 301v-613z" />
<glyph unicode="&#x445;" horiz-adv-x="1079" d="M25 0l368 545l-354 522h319l181 -305l182 305h319l-354 -522l369 -545h-320l-196 319l-195 -319h-319z" />
<glyph unicode="&#x446;" horiz-adv-x="1216" d="M147 0v1067h269v-831h342v831h268v-831h143v-498h-254v262h-768z" />
<glyph unicode="&#x447;" horiz-adv-x="1122" d="M119 637v430h266v-356q0 -129 131 -129q51 0 193 18v467h266v-1067h-266v375q-162 -29 -291 -29q-131 0 -215 78t-84 213z" />
<glyph unicode="&#x448;" horiz-adv-x="1683" d="M147 0v1067h269v-831h293v831h266v-831h293v831h266v-1067h-1387z" />
<glyph unicode="&#x449;" horiz-adv-x="1726" d="M147 0v1067h269v-831h293v831h266v-831h293v831h266v-831h143v-498h-252v262h-1278z" />
<glyph unicode="&#x44a;" horiz-adv-x="1208" d="M25 831v236h518v-385h245q158 0 256.5 -94t98.5 -246t-98.5 -247t-256.5 -95h-514v831h-249zM535 209h204q66 0 104 36t38 97q0 59 -38 95t-104 36h-204v-264z" />
<glyph unicode="&#x44b;" horiz-adv-x="1562" d="M147 0v1067h269v-385h241q158 0 257.5 -94t99.5 -246t-99.5 -247t-257.5 -95h-510zM408 209h200q66 0 104 36t38 97q0 59 -38 95t-104 36h-200v-264zM1139 0v1067h268v-1067h-268z" />
<glyph unicode="&#x44c;" horiz-adv-x="1083" d="M147 0v1067h269v-385h246q158 0 256 -94t98 -246t-99.5 -247t-254.5 -95h-515zM408 209h204q63 0 101.5 36t38.5 97q0 59 -38 95t-102 36h-204v-264z" />
<glyph unicode="&#x44d;" horiz-adv-x="983" d="M57 131l179 176q47 -47 84.5 -66.5t89.5 -19.5q186 0 211 228h-314v182h314q-31 215 -213 215q-86 0 -172 -86l-179 176q84 78 162 110.5t189 32.5q227 0 353 -141t126 -397q0 -266 -125 -409.5t-354 -143.5q-111 0 -189 32.5t-162 110.5z" />
<glyph unicode="&#x44e;" horiz-adv-x="1585" d="M147 0v1067h269v-408h166q23 221 159 328q117 92 287 92q217 0 338 -139q61 -70 88 -163t27 -240q0 -160 -28 -253.5t-93 -164.5q-125 -131 -332 -131q-170 0 -285 92q-147 115 -161 352h-166v-432h-269zM844 539q0 -176 45 -244t139 -68q96 0 141 70q45 66 45 240 q0 168 -47 239q-45 63 -139 64q-92 0 -137 -66q-47 -63 -47 -235z" />
<glyph unicode="&#x44f;" horiz-adv-x="1095" d="M59 0l215 436q-92 35 -145 113t-53 184q0 145 99 239.5t255 94.5h518v-1067h-266v379h-143l-177 -379h-303zM336 721q0 -59 38 -95t103 -36h209v264h-209q-66 0 -103.5 -36t-37.5 -97z" />
<glyph unicode="&#x450;" horiz-adv-x="1122" d="M238 1550h281l131 -348h-179zM96 537q0 250 125 396t340 146q211 0 338 -139t127 -371v-118h-668q12 -238 244 -238q68 0 123 23q49 20 109 77l161 -157q-96 -92 -184 -129q-98 -39 -219 -39q-496 0 -496 549zM358 633h406q-6 109 -58.5 167t-144.5 58t-145.5 -58 t-57.5 -167z" />
<glyph unicode="&#x451;" horiz-adv-x="1122" d="M96 537q0 250 125 396t340 146q211 0 338 -139t127 -371v-118h-668q12 -238 244 -238q68 0 123 23q49 20 109 77l161 -157q-96 -92 -184 -129q-98 -39 -219 -39q-496 0 -496 549zM227 1241v256h228v-256h-228zM358 633h406q-6 109 -58.5 167t-144.5 58t-145.5 -58 t-57.5 -167zM680 1241v256h227v-256h-227z" />
<glyph unicode="&#x452;" horiz-adv-x="1165" d="M51 1096v204h96v158h269v-158h467v-204h-467v-211q113 111 262 110q162 0 256 -105.5t94 -283.5v-659q0 -156 -82 -251t-270 -95h-123v225h74q66 0 99.5 42t33.5 97v602q0 88 -44 138.5t-124 50.5t-128 -51.5t-48 -137.5v-567h-269v1096h-96z" />
<glyph unicode="&#x453;" horiz-adv-x="888" d="M156 0v1067h706v-236h-440v-831h-266zM342 1237l131 348h281l-234 -348h-178z" />
<glyph unicode="&#x454;" horiz-adv-x="983" d="M96 541q0 254 127 396t352 142q111 0 189 -32.5t162 -110.5l-176 -176q-88 86 -175 86q-184 0 -210 -215h317v-182h-317q25 -227 210 -228q51 0 89 19.5t86 66.5l176 -176q-82 -78 -161 -110.5t-190 -32.5q-229 0 -354 143.5t-125 409.5z" />
<glyph unicode="&#x455;" horiz-adv-x="1026" d="M45 141l174 174q100 -100 285 -100q78 0 133 27.5t55 83.5q0 88 -112 98l-168 16q-311 31 -312 299q0 160 120 250t292 90q274 0 408 -125l-164 -166q-80 72 -248 72q-76 0 -114 -29.5t-38 -72.5q0 -82 111 -92l168 -17q156 -14 236.5 -95t80.5 -218q0 -170 -127 -259 t-325 -89q-147 0 -255 30.5t-200 122.5z" />
<glyph unicode="&#x456;" horiz-adv-x="563" d="M145 1249v217h273v-217h-273zM150 0v1067h266v-1067h-266z" />
<glyph unicode="&#x457;" horiz-adv-x="563" d="M-57 1241v256h227v-256h-227zM150 0v1067h266v-1067h-266zM395 1241v256h228v-256h-228z" />
<glyph unicode="&#x458;" horiz-adv-x="563" d="M-47 -174h102q94 0 95 96v1145h266v-1161q0 -125 -79 -215t-233 -90h-151v225zM145 1249v217h273v-217h-273z" />
<glyph unicode="&#x459;" horiz-adv-x="1687" d="M29 0v236h32q43 0 68 9t54.5 45t43 122t13.5 223v432h780v-385h248q158 0 257 -94t99 -246t-99.5 -247t-256.5 -95h-514v831h-256v-256q0 -326 -84 -450.5t-258 -124.5h-127zM1014 209h205q66 0 103.5 36t37.5 97q0 59 -38 95t-103 36h-205v-264z" />
<glyph unicode="&#x45a;" horiz-adv-x="1693" d="M147 0v1067h269v-385h342v385h268v-385h248q158 0 256 -94t98 -246t-99 -247t-255 -95h-516v446h-342v-446h-269zM1018 209h205q66 0 103.5 36t37.5 97q0 59 -38 95t-103 36h-205v-264z" />
<glyph unicode="&#x45b;" horiz-adv-x="1165" d="M51 1075v205h96v178h269v-178h467v-205h-467v-211q113 111 260 111q162 0 257 -105.5t95 -283.5v-586h-268v547q0 88 -45 138t-125 50q-82 0 -128 -51t-46 -137v-547h-269v1075h-96z" />
<glyph unicode="&#x45c;" horiz-adv-x="1091" d="M150 0v1067h268v-506l350 506h311l-377 -498l402 -569h-320l-366 557v-557h-268zM461 1237l131 348h280l-233 -348h-178z" />
<glyph unicode="&#x45d;" horiz-adv-x="1206" d="M281 1550h281l131 -348h-179zM147 0v1067h269v-635l375 635h268v-1067h-268v651l-375 -651h-269z" />
<glyph unicode="&#x45e;" horiz-adv-x="1011" d="M8 1067h281l221 -659l213 659h281l-457 -1239q-43 -115 -116 -167t-193 -52h-105v239h62q59 0 85.5 19.5t47.5 77.5l45 131zM178 1479h201q8 -127 131 -127t131 127h201q-4 -154 -99.5 -223.5t-232.5 -69.5t-231.5 69.5t-100.5 223.5z" />
<glyph unicode="&#x45f;" horiz-adv-x="1173" d="M147 0v1067h269v-831h342v831h268v-1067h-315v-262h-252v262h-312z" />
<glyph unicode="&#x470;" horiz-adv-x="1525" d="M102 743v715h283v-715q0 -98 61 -163q72 -74 175 -78v956h284v-956q102 4 174 78q61 66 62 163v715h282v-715q0 -203 -133 -335q-158 -158 -385 -160v-248h-284v248q-227 2 -385 160q-134 132 -134 335z" />
<glyph unicode="&#x471;" horiz-adv-x="1433" d="M119 535v532h268v-582q0 -258 197 -258v840h268v-840q195 0 195 258v582h268v-532q0 -150 -25.5 -247.5t-89.5 -166.5q-113 -127 -348 -127v-385h-268v385q-236 0 -348 127q-117 127 -117 414z" />
<glyph unicode="&#x490;" horiz-adv-x="1148" d="M176 0v1458h643v324h275v-578h-633v-1204h-285z" />
<glyph unicode="&#x491;" horiz-adv-x="888" d="M156 0v1067h454v262h252v-498h-440v-831h-266z" />
<glyph unicode="&#x4ae;" horiz-adv-x="1171" d="M6 1458h309l273 -588l268 588h309l-438 -860v-598h-283v598z" />
<glyph unicode="&#x4c0;" horiz-adv-x="624" d="M170 0v1458h285v-1458h-285z" />
<glyph unicode="&#x4c1;" horiz-adv-x="1923" d="M627 1903h178q14 -123 157.5 -123t158.5 123h178q-8 -158 -100.5 -233.5t-235.5 -75.5t-236.5 75.5t-99.5 233.5zM-12 0l526 774l-477 684h336l446 -692v692h285v-692l446 692h336l-477 -684l526 -774h-344l-487 762v-762h-285v762l-487 -762h-344z" />
<glyph unicode="&#x4c2;" horiz-adv-x="1558" d="M444 1512h178q14 -123 157.5 -123t158.5 123h178q-8 -158 -100.5 -233.5t-235.5 -75.5t-236.5 75.5t-99.5 233.5zM-12 0l374 569l-350 498h305l328 -506v506h268v-506l330 506h305l-350 -498l373 -569h-311l-347 557v-557h-268v557l-344 -557h-313z" />
<glyph unicode="&#x4d0;" horiz-adv-x="1306" d="M315 1903h178q14 -123 157.5 -123t158.5 123h178q-8 -158 -100.5 -233.5t-235.5 -75.5t-236.5 75.5t-99.5 233.5zM10 0l531 1458h223l532 -1458h-297l-86 258h-518l-88 -258h-297zM475 498h363l-179 530z" />
<glyph unicode="&#x4d1;" horiz-adv-x="1093" d="M160 1512h178q14 -123 157.5 -123t158.5 123h178q-8 -158 -100.5 -233.5t-235.5 -75.5t-236.5 75.5t-99.5 233.5zM74 322q0 143 97 227t267 84h252v53q0 88 -47 128t-156 40q-72 0 -112.5 -18.5t-87.5 -69.5l-170 166q78 78 143 108q90 39 236 39q461 0 460 -377v-702 h-260v92q-59 -57 -110 -78q-61 -25 -152 -24q-170 0 -265 87t-95 245zM330 330q0 -123 168 -123q102 0 147 43t45 143v58h-211q-72 0 -110.5 -32t-38.5 -89z" />
<glyph unicode="&#x4d2;" horiz-adv-x="1306" d="M311 1593v256h227v-256h-227zM764 1593v256h227v-256h-227zM10 0l531 1458h223l532 -1458h-297l-86 258h-518l-88 -258h-297zM475 498h363l-179 530z" />
<glyph unicode="&#x4d3;" horiz-adv-x="1093" d="M156 1202v256h227v-256h-227zM609 1202v256h227v-256h-227zM74 322q0 143 97 227t267 84h252v53q0 88 -47 128t-156 40q-72 0 -112.5 -18.5t-87.5 -69.5l-170 166q78 78 143 108q90 39 236 39q461 0 460 -377v-702h-260v92q-59 -57 -110 -78q-61 -25 -152 -24 q-170 0 -265 87t-95 245zM330 330q0 -123 168 -123q102 0 147 43t45 143v58h-211q-72 0 -110.5 -32t-38.5 -89z" />
<glyph unicode="&#x4d4;" horiz-adv-x="2004" d="M6 0l762 1458h1128v-254h-675v-344h577v-254h-577v-352h675v-254h-958v319h-461l-166 -319h-305zM600 559h338v645z" />
<glyph unicode="&#x4d5;" horiz-adv-x="1716" d="M74 324q0 135 93 222t271 87h252v53q0 88 -47 128t-151 40q-76 0 -119 -19.5t-86 -68.5l-170 166q76 84 162 115.5t223 31.5q244 0 350 -116q115 117 303 116q217 0 341 -142t124 -368v-118h-668q0 -106 62.5 -172t171.5 -66q84 0 136 23.5t105 76.5l162 -157 q-88 -88 -178 -128t-227 -40q-246 0 -375 149q-82 -90 -167 -119.5t-208 -29.5q-176 0 -272 96q-88 93 -88 240zM330 330q0 -123 153 -123q115 0 168 51q39 37 39 135v58h-211q-72 0 -110.5 -32t-38.5 -89zM952 633h406q-2 63 -25 115q-49 111 -178 110.5t-178 -110.5 q-23 -52 -25 -115z" />
<glyph unicode="&#x4d6;" horiz-adv-x="1239" d="M315 1903h178q14 -123 157.5 -123t158.5 123h178q-8 -158 -100.5 -233.5t-235.5 -75.5t-236.5 75.5t-99.5 233.5zM170 0v1458h960v-254h-675v-342h575v-254h-575v-354h675v-254h-960z" />
<glyph unicode="&#x4d7;" horiz-adv-x="1122" d="M225 1512h178q14 -123 157.5 -123t158.5 123h178q-8 -158 -100.5 -233.5t-235.5 -75.5t-236.5 75.5t-99.5 233.5zM96 537q0 250 125 396t340 146q211 0 338 -139t127 -371v-118h-668q12 -238 244 -238q68 0 123 23q49 20 109 77l161 -157q-96 -92 -184 -129 q-98 -39 -219 -39q-496 0 -496 549zM358 633h406q-6 109 -58.5 167t-144.5 58t-145.5 -58t-57.5 -167z" />
<glyph unicode="&#x4dc;" horiz-adv-x="1923" d="M623 1593v256h227v-256h-227zM1076 1593v256h227v-256h-227zM-12 0l526 774l-477 684h336l446 -692v692h285v-692l446 692h336l-477 -684l526 -774h-344l-487 762v-762h-285v762l-487 -762h-344z" />
<glyph unicode="&#x4dd;" horiz-adv-x="1558" d="M440 1202v256h227v-256h-227zM893 1202v256h227v-256h-227zM-12 0l374 569l-350 498h305l328 -506v506h268v-506l330 506h305l-350 -498l373 -569h-311l-347 557v-557h-268v557l-344 -557h-313z" />
<glyph unicode="&#x4de;" horiz-adv-x="1241" d="M266 1593v256h227v-256h-227zM719 1593v256h227v-256h-227zM70 442h282q55 -207 250 -206q106 0 170 54t64 142q0 94 -56.5 145.5t-165.5 51.5h-188v233h190q94 0 146.5 48t52.5 137q0 84 -57.5 132t-153.5 48q-100 0 -162.5 -58.5t-85.5 -152.5h-284q37 219 181 336.5 t353 117.5q217 0 355.5 -110.5t138.5 -292.5q0 -211 -191 -313q211 -94 211 -332q0 -197 -145.5 -315.5t-374.5 -118.5q-205 0 -349 117.5t-181 336.5z" />
<glyph unicode="&#x4df;" horiz-adv-x="1015" d="M164 1202v256h227v-256h-227zM617 1202v256h227v-256h-227zM35 139l153 168q106 -94 271 -94q76 0 131 31.5t55 89.5q0 115 -153 115h-162v190h157q66 0 105 31.5t39 85.5q0 109 -180 108q-127 0 -232 -73l-147 163q158 125 432 125q162 0 275.5 -76.5t113.5 -211.5 q0 -76 -40 -137.5t-105 -92.5q74 -31 117.5 -96.5t43.5 -149.5q0 -145 -118.5 -236t-288.5 -91q-299 -1 -467 151z" />
<glyph unicode="&#x4e2;" horiz-adv-x="1445" d="M399 1593v180h650v-180h-650zM170 0v1458h285v-934l567 934h254v-1458h-285v936l-567 -936h-254z" />
<glyph unicode="&#x4e3;" horiz-adv-x="1206" d="M278 1202v180h650v-180h-650zM147 0v1067h269v-635l375 635h268v-1067h-268v651l-375 -651h-269z" />
<glyph unicode="&#x4e4;" horiz-adv-x="1445" d="M383 1593v256h227v-256h-227zM836 1593v256h227v-256h-227zM170 0v1458h285v-934l567 934h254v-1458h-285v936l-567 -936h-254z" />
<glyph unicode="&#x4e5;" horiz-adv-x="1206" d="M262 1202v256h227v-256h-227zM715 1202v256h227v-256h-227zM147 0v1067h269v-635l375 635h268v-1067h-268v651l-375 -651h-269z" />
<glyph unicode="&#x4e6;" horiz-adv-x="1318" d="M319 1593v256h227v-256h-227zM772 1593v256h227v-256h-227zM121 668v120q0 219 29.5 328t113.5 195q156 160 395 159q238 0 394 -159q145 -147 145 -480v-155q0 -125 -5 -194.5t-39 -167t-101 -167.5q-154 -160 -393.5 -159.5t-395.5 159.5q-66 68 -99.5 170.5t-38.5 172 t-5 178.5zM406 676q0 -96 3 -149.5t19 -115t47 -92.5q78 -78 184 -77q115 0 183 77q45 51 58 133.5t13 303.5q0 180 -14 258t-57 125q-68 78 -183 78q-117 0 -184 -78q-45 -49 -57 -138.5t-12 -250.5v-74z" />
<glyph unicode="&#x4e7;" d="M215 1202v256h227v-256h-227zM668 1202v256h227v-256h-227zM104 535q0 158 28 250t93 163q125 131 330 131q207 0 332 -131q66 -70 93.5 -162t27.5 -247q0 -164 -27 -257.5t-94 -162.5q-125 -131 -332 -131q-205 0 -330 131q-68 70 -94.5 163t-26.5 253zM371 518 q0 -154 44 -222.5t140 -68.5q51 0 88 19.5t55.5 47.5t28.5 74t12 80.5t2 86.5q0 63 -5 107t-21.5 94t-56.5 77t-103 27q-53 0 -89 -21.5t-54.5 -50.5t-28.5 -79t-11 -83t-1 -88z" />
<glyph unicode="&#x4e8;" horiz-adv-x="1318" d="M121 729q0 129 2 182.5t14.5 141.5t43 146t83.5 112q160 160 395.5 159.5t395.5 -159.5q53 -53 83.5 -111.5t43 -146.5t14.5 -141.5t2 -182.5t-2 -182t-14.5 -141.5t-43 -146.5t-83.5 -112q-160 -160 -395.5 -159.5t-395.5 159.5q-53 53 -83.5 111.5t-43 147t-14.5 141.5 t-2 182zM406 614q2 -133 17 -191t52 -101q72 -80 184 -80q111 0 183 80q37 43 52 101t17 191h-505zM406 858h505q-4 127 -19 183.5t-50 97.5q-68 78 -183 78q-117 0 -184 -78q-35 -41 -50 -97.5t-19 -183.5z" />
<glyph unicode="&#x4e9;" horiz-adv-x="1179" d="M123 729q0 115 2 168t13.5 148.5t43 164t82.5 125.5q123 135 328 135t328 -135q41 -45 69.5 -108.5t41.5 -107.5t19.5 -137t6.5 -120v-135q0 -125 -1 -169t-12.5 -145.5t-42 -169t-81.5 -122.5q-123 -135 -328 -135t-328 135q-51 57 -82.5 125.5t-43 164t-13.5 149.5 t-2 169zM393 647q0 -287 68 -360q55 -59 131 -60q78 0 131 60q66 74 65 360h-395zM393 877h393q-6 229 -63 294q-53 59 -131 59.5t-131 -59.5q-62 -67 -68 -294z" />
<glyph unicode="&#x4ea;" horiz-adv-x="1318" d="M319 1593v256h227v-256h-227zM772 1593v256h227v-256h-227zM121 729q0 129 2 182.5t14.5 141.5t43 146t83.5 112q160 160 395.5 159.5t395.5 -159.5q53 -53 83.5 -111.5t43 -146.5t14.5 -141.5t2 -182.5t-2 -182t-14.5 -141.5t-43 -146.5t-83.5 -112 q-160 -160 -395.5 -159.5t-395.5 159.5q-53 53 -83.5 111.5t-43 147t-14.5 141.5t-2 182zM406 614q2 -133 17 -191t52 -101q72 -80 184 -80q111 0 183 80q37 43 52 101t17 191h-505zM406 858h505q-4 127 -19 183.5t-50 97.5q-68 78 -183 78q-117 0 -184 -78 q-35 -41 -50 -97.5t-19 -183.5z" />
<glyph unicode="&#x4eb;" horiz-adv-x="1179" d="M252 1593v256h227v-256h-227zM705 1593v256h227v-256h-227zM123 729q0 115 2 168t13.5 148.5t43 164t82.5 125.5q123 135 328 135t328 -135q41 -45 69.5 -108.5t41.5 -107.5t19.5 -137t6.5 -120v-135q0 -125 -1 -169t-12.5 -145.5t-42 -169t-81.5 -122.5 q-123 -135 -328 -135t-328 135q-51 57 -82.5 125.5t-43 164t-13.5 149.5t-2 169zM393 647q0 -287 68 -360q55 -59 131 -60q78 0 131 60q66 74 65 360h-395zM393 877h393q-6 229 -63 294q-53 59 -131 59.5t-131 -59.5q-62 -67 -68 -294z" />
<glyph unicode="&#x4ec;" horiz-adv-x="1267" d="M270 1593v256h227v-256h-227zM723 1593v256h227v-256h-227zM76 442h282q23 -94 86.5 -150t163.5 -56q117 0 187 79q37 41 53 101.5t20 191.5h-454v248h452q-4 129 -19.5 187.5t-51.5 99.5q-70 80 -187 80q-195 0 -250 -207h-282q37 219 181 336.5t353 117.5 q233 0 394 -159q53 -53 83.5 -111.5t43 -146.5t14.5 -141.5t2 -182.5t-2 -182t-14.5 -141.5t-43 -146.5t-83.5 -112q-160 -160 -394 -159q-209 0 -353 117.5t-181 336.5z" />
<glyph unicode="&#x4ed;" horiz-adv-x="983" d="M68 1202v256h227v-256h-227zM521 1202v256h227v-256h-227zM57 131l179 176q47 -47 84.5 -66.5t89.5 -19.5q186 0 211 228h-314v182h314q-31 215 -213 215q-86 0 -172 -86l-179 176q84 78 162 110.5t189 32.5q227 0 353 -141t126 -397q0 -266 -125 -409.5t-354 -143.5 q-111 0 -189 32.5t-162 110.5z" />
<glyph unicode="&#x4ee;" horiz-adv-x="1189" d="M270 1593v180h650v-180h-650zM8 1458h297l305 -702l277 702h295l-516 -1212q-104 -246 -326 -246h-174v254h115q111 0 151 92l43 100z" />
<glyph unicode="&#x4ef;" horiz-adv-x="1011" d="M182 1202v180h650v-180h-650zM8 1067h281l221 -659l213 659h281l-457 -1239q-43 -115 -116 -167t-193 -52h-105v239h62q59 0 85.5 19.5t47.5 77.5l45 131z" />
<glyph unicode="&#x4f0;" horiz-adv-x="1189" d="M254 1593v256h227v-256h-227zM707 1593v256h227v-256h-227zM8 1458h297l305 -702l277 702h295l-516 -1212q-104 -246 -326 -246h-174v254h115q111 0 151 92l43 100z" />
<glyph unicode="&#x4f1;" horiz-adv-x="1011" d="M166 1202v256h227v-256h-227zM619 1202v256h227v-256h-227zM8 1067h281l221 -659l213 659h281l-457 -1239q-43 -115 -116 -167t-193 -52h-105v239h62q59 0 85.5 19.5t47.5 77.5l45 131z" />
<glyph unicode="&#x4f2;" horiz-adv-x="1189" d="M301 1593l131 348h280l-231 -348h-180zM715 1593l129 348h282l-235 -348h-176zM8 1458h297l305 -702l277 702h295l-516 -1212q-104 -246 -326 -246h-174v254h115q111 0 151 92l43 100z" />
<glyph unicode="&#x4f3;" horiz-adv-x="1011" d="M211 1202l131 348h280l-231 -348h-180zM625 1202l129 348h282l-235 -348h-176zM8 1067h281l221 -659l213 659h281l-457 -1239q-43 -115 -116 -167t-193 -52h-105v239h62q59 0 85.5 19.5t47.5 77.5l45 131z" />
<glyph unicode="&#x4f4;" horiz-adv-x="1329" d="M303 1593v256h227v-256h-227zM756 1593v256h227v-256h-227zM131 862v596h285v-522q0 -174 182 -174q127 0 276 31v665h283v-1458h-283v547q-240 -39 -370 -39q-154 0 -263.5 92t-109.5 262z" />
<glyph unicode="&#x4f5;" horiz-adv-x="1122" d="M207 1202v256h227v-256h-227zM660 1202v256h227v-256h-227zM119 637v430h266v-356q0 -129 131 -129q51 0 193 18v467h266v-1067h-266v375q-162 -29 -291 -29q-131 0 -215 78t-84 213z" />
<glyph unicode="&#x4f8;" horiz-adv-x="1828" d="M573 1593v256h227v-256h-227zM1026 1593v256h227v-256h-227zM170 0v1458h285v-549h288q213 0 343.5 -127t130.5 -327.5t-131.5 -327.5t-342.5 -127h-573zM455 254h266q96 0 153.5 55.5t57.5 145.5t-57.5 145t-153.5 55h-266v-401zM1374 0v1458h285v-1458h-285z" />
<glyph unicode="&#x4f9;" horiz-adv-x="1562" d="M438 1202v256h227v-256h-227zM891 1202v256h227v-256h-227zM147 0v1067h269v-385h241q158 0 257.5 -94t99.5 -246t-99.5 -247t-257.5 -95h-510zM408 209h200q66 0 104 36t38 97q0 59 -38 95t-104 36h-200v-264zM1139 0v1067h268v-1067h-268z" />
<glyph unicode="&#x2000;" horiz-adv-x="972" />
<glyph unicode="&#x2001;" horiz-adv-x="1947" />
<glyph unicode="&#x2002;" horiz-adv-x="972" />
<glyph unicode="&#x2003;" horiz-adv-x="1947" />
<glyph unicode="&#x2004;" horiz-adv-x="649" />
<glyph unicode="&#x2005;" horiz-adv-x="485" />
<glyph unicode="&#x2006;" horiz-adv-x="323" />
<glyph unicode="&#x2007;" horiz-adv-x="323" />
<glyph unicode="&#x2008;" horiz-adv-x="241" />
<glyph unicode="&#x2009;" horiz-adv-x="389" />
<glyph unicode="&#x200a;" horiz-adv-x="106" />
<glyph unicode="&#x2010;" horiz-adv-x="872" d="M121 461v248h631v-248h-631z" />
<glyph unicode="&#x2011;" horiz-adv-x="872" d="M121 461v248h631v-248h-631z" />
<glyph unicode="&#x2012;" horiz-adv-x="872" d="M121 461v248h631v-248h-631z" />
<glyph unicode="&#x2013;" d="M102 461v248h908v-248h-908z" />
<glyph unicode="&#x2014;" horiz-adv-x="2103" d="M121 463v256h1861v-256h-1861z" />
<glyph unicode="&#x2018;" horiz-adv-x="559" d="M139 1206v252l279 215v-467h-279z" />
<glyph unicode="&#x2019;" horiz-adv-x="559" d="M139 993v465h279v-254z" />
<glyph unicode="&#x201a;" horiz-adv-x="555" d="M139 -213v467h279v-254z" />
<glyph unicode="&#x201c;" horiz-adv-x="987" d="M139 1206v252l277 215v-467h-277zM569 1206v252l279 215v-467h-279z" />
<glyph unicode="&#x201d;" horiz-adv-x="987" d="M139 993v465h277v-254zM569 993v465h279v-254z" />
<glyph unicode="&#x201e;" horiz-adv-x="993" d="M139 -213v467h277v-254zM569 -213v467h279v-254z" />
<glyph unicode="&#x2022;" horiz-adv-x="1009" d="M170 684q0 139 97.5 236.5t236.5 97.5t236.5 -97.5t97.5 -236.5t-97.5 -236.5t-236.5 -97.5t-236.5 97.5t-97.5 236.5z" />
<glyph unicode="&#x2026;" horiz-adv-x="1732" d="M139 0v289h291v-289h-291zM721 0v289h289v-289h-289zM1305 0v289h288v-289h-288z" />
<glyph unicode="&#x202f;" horiz-adv-x="389" />
<glyph unicode="&#x2039;" horiz-adv-x="716" d="M70 563l510 508v-317l-193 -191l193 -190v-318z" />
<glyph unicode="&#x203a;" horiz-adv-x="716" d="M137 55v318l195 190l-195 191v317l510 -508z" />
<glyph unicode="&#x205f;" horiz-adv-x="485" />
<glyph unicode="&#x20ac;" horiz-adv-x="1400" d="M80 485v170h141v154h-141v170h149q20 213 138 332q160 160 393 159q211 0 354 -118.5t180 -341.5h-288q-51 207 -246 207q-111 0 -180 -76q-49 -55 -60 -162h303v-170h-315v-154h315v-170h-305q10 -111 62 -168q70 -76 180 -75q197 0 248 207h286q-37 -223 -181 -342 t-353 -119q-233 0 -393 159q-117 117 -138 338h-149z" />
<glyph unicode="&#x2122;" horiz-adv-x="1892" d="M92 1284v174h645v-174h-225v-700h-195v700h-225zM872 584v874h195l250 -467l250 467h194v-874h-194v516l-164 -322h-172l-164 322v-516h-195z" />
<glyph unicode="&#xe000;" horiz-adv-x="1065" d="M0 1065h1065v-1065h-1065v1065z" />
</font>
</defs>
</svg>
